<svg width="30" height="25" viewBox="0 0 30 25" fill="none" xmlns="http://www.w3.org/2000/svg">
<g clip-path="url(#clip0_13_53344)">
<path d="M27.0295 13.1613L27.0295 6.13163C27.0295 5.36702 26.4092 4.74676 25.6446 4.74676L18.6111 4.75066C17.8465 4.75066 17.2262 5.37092 17.2262 6.13553C17.2262 6.90013 17.8465 7.52039 18.6111 7.52039L22.2819 7.51649L17.3198 12.4786L8.00024 12.4825C7.63354 12.4825 7.27855 12.6268 7.01718 12.8882L1.69616 18.2092C1.15392 18.7515 1.15782 19.6292 1.69616 20.1675C2.23841 20.7098 3.11614 20.7059 3.65448 20.1675L8.56979 15.2522L17.8933 15.2522C18.26 15.2522 18.615 15.1079 18.8763 14.8465L24.2598 9.46311L24.2598 13.1613C24.291 13.9259 24.9385 14.5189 25.707 14.4837C26.4209 14.4564 26.9983 13.8791 27.0295 13.1613Z" fill="white"/>
</g>
<defs>
<clipPath id="clip0_13_53344">
<rect width="24" height="30" fill="white" transform="translate(30 0.5) rotate(90)"/>
</clipPath>
</defs>
</svg>
