<svg width="19" height="20" viewBox="0 0 19 20" fill="none" xmlns="http://www.w3.org/2000/svg">
<g clip-path="url(#clip0_23_2618)">
<path d="M2.17407 13.3565C-0.724406 10.3054 -0.724405 5.33966 2.17407 2.28863C5.07317 -0.761733 9.79003 -0.761733 12.6891 2.28863C15.2697 5.00565 15.5461 9.23728 13.5311 12.2863C13.8195 12.3505 14.0947 12.4973 14.319 12.7334L18.5401 17.1767C18.6861 17.3301 18.8019 17.5124 18.8809 17.713C18.9599 17.9135 19.0006 18.1286 19.0006 18.3457C19.0006 18.5629 18.9599 18.7779 18.8809 18.9785C18.8019 19.1791 18.6861 19.3613 18.5401 19.5147C18.3944 19.6685 18.2213 19.7906 18.0308 19.8738C17.8402 19.9571 17.6359 20 17.4295 20C17.2232 20 17.0189 19.9571 16.8283 19.8738C16.6378 19.7906 16.4647 19.6685 16.319 19.5147L12.0966 15.0715C11.8822 14.8442 11.7351 14.5563 11.6731 14.2427C8.77591 16.3652 4.7565 16.0741 2.17407 13.3565ZM11.3564 11.9536C13.5204 9.67578 13.5204 5.96865 11.3564 3.69146C9.19249 1.41493 5.67134 1.41493 3.50738 3.69146C1.34405 5.96865 1.34405 9.67578 3.50738 11.9536C5.67134 14.2315 9.19249 14.2315 11.3564 11.9536Z" fill="white"/>
</g>
<defs>
<clipPath id="clip0_23_2618">
<rect width="20" height="19" fill="white" transform="matrix(-4.37114e-08 1 1 4.37114e-08 0 0)"/>
</clipPath>
</defs>
</svg>
