<svg width="130" height="130" viewBox="0 0 130 130" fill="none" xmlns="http://www.w3.org/2000/svg">
<path fill-rule="evenodd" clip-rule="evenodd" d="M64.8176 129.635C100.615 129.635 129.635 100.615 129.635 64.8176C129.635 29.0198 100.615 0 64.8176 0C29.0198 0 0 29.0198 0 64.8176C0 100.615 29.0198 129.635 64.8176 129.635ZM117.635 64.8176C117.635 93.988 93.988 117.635 64.8176 117.635C35.6473 117.635 12 93.988 12 64.8176C12 35.6473 35.6473 12 64.8176 12C93.988 12 117.635 35.6473 117.635 64.8176ZM55.9223 89.883C56.3347 89.7125 56.7091 89.4627 57.024 89.148L96.6073 49.8065C97.5631 48.8564 98.1 47.5679 98.1 46.2243C98.1 44.8808 97.5631 43.5923 96.6073 42.6422L94.2043 40.2541C93.2482 39.3042 91.9517 38.7706 90.5998 38.7706C89.2479 38.7706 87.9514 39.3042 86.9953 40.2541L54.621 72.4278L42.64 60.521C41.6839 59.5711 40.3874 59.0375 39.0355 59.0375C37.6836 59.0375 36.3871 59.5711 35.431 60.521L33.028 62.9091C32.0722 63.8592 31.5353 65.1477 31.5353 66.4913C31.5353 67.8348 32.0722 69.1233 33.028 70.0734L52.218 89.148C52.533 89.4627 52.9074 89.7125 53.3198 89.883C53.7322 90.0534 54.1744 90.1412 54.621 90.1412C55.0677 90.1412 55.5099 90.0534 55.9223 89.883Z" fill="#ED3333"/>
</svg>
